#Comment line ignore any data following # character 
#Hierarchical Translation and Rotation (.htr) file 
[Header]	
#Header keywords are followed by a single value 
FileType HTR		#Single word string
DataType HTRS		#Translation followed by rotation and scale data
FileVersion 1		#integer
NumSegments 64		#integer
NumFrames 3		#integer
DataFrameRate 30		#integer, data frame rate in this file
EulerRotationOrder ZYX
CalibrationUnits mm
RotationUnits Degrees
GlobalAxisofGravity Y
BoneLengthAxis Y
ScaleFactor 1.00
[SegmentNames&Hierarchy]
#CHILD	PARENT
Pinger_Root GLOBAL
Pelvis Pinger_Root
L_Hip Pelvis
R_Hip Pelvis
Rear_Leg01 Pelvis
Spine1 Pelvis
L_Leg01 L_Hip
L_Leg02 L_Leg01
L_Leg03 L_Leg02
L_Foot L_Leg03
L_Toe1_01 L_Foot
L_Toe2_01 L_Foot
L_Toe3_01 L_Foot
planeAlignerLeft L_Foot
L_Toe1_02 L_Toe1_01
L_Toe1_03 L_Toe1_02
L_Toe2_02 L_Toe2_01
L_Toe2_03 L_Toe2_02
L_Toe3_02 L_Toe3_01
L_Toe3_03 L_Toe3_02
planeLockWeightLeft planeAlignerLeft
R_Leg01 R_Hip
R_Leg02 R_Leg01
R_Leg03 R_Leg02
R_Foot R_Leg03
planeAlignerRight R_Foot
R_Toe1_01 R_Foot
R_Toe2_01 R_Foot
R_Toe3_01 R_Foot
planeLockWeightRight planeAlignerRight
R_Toe1_02 R_Toe1_01
R_Toe1_03 R_Toe1_02
R_Toe2_02 R_Toe2_01
R_Toe2_03 R_Toe2_02
R_Toe3_02 R_Toe3_01
R_Toe3_03 R_Toe3_02
Rear_Leg02 Rear_Leg01
Rear_Leg03 Rear_Leg02
Rear_Leg04 Rear_Leg03
Rear_Foot Rear_Leg04
planeAlignerCenter Rear_Foot
Rear_Toe1_01 Rear_Foot
Rear_Toe2_01 Rear_Foot
Rear_Toe3_01 Rear_Foot
planeLockWeightCenter planeAlignerCenter
Rear_Toe1_02 Rear_Toe1_01
Rear_Toe1_03 Rear_Toe1_02
Rear_Toe2_02 Rear_Toe2_01
Rear_Toe2_03 Rear_Toe2_02
Rear_Toe3_02 Rear_Toe3_01
Rear_Toe3_03 Rear_Toe3_02
Back_Bone Spine1
Head Spine1
Motor_Bone Back_Bone
Ping_Mechanism Back_Bone
BN_LookIK Head
bottomMouth Head
L_Mouth01 Head
L_mouthFront Head
mouthGun Head
R_Mouth01 Head
R_mouthFront Head
TopMouth Head
weapon_bone Head
[BasePosition]
#SegmentName Tx, Ty, Tz, Rx, Ry, Rz, BoneLength
Pinger_Root 0.000000 0.000000 0.000000 -90.000000 0.000000 0.000000 10.000000 
Pelvis 0.000000 0.000000 0.000000 0.000000 0.000000 0.000000 10.000000 
L_Hip 0.000000 0.000000 0.000000 0.000000 0.000000 0.000000 10.000000 
R_Hip 0.000000 0.000000 0.000000 0.000000 0.000000 0.000000 10.000000 
Rear_Leg01 0.000000 0.000000 0.000000 0.000000 0.000000 0.000000 10.000000 
Spine1 0.000000 0.000000 0.000000 0.000000 0.000000 0.000000 10.000000 
L_Leg01 0.000000 0.000000 0.000000 0.000000 0.000000 0.000000 10.000000 
L_Leg02 0.000000 0.000000 0.000000 0.000000 0.000000 0.000000 10.000000 
L_Leg03 0.000000 0.000000 0.000000 0.000000 0.000000 0.000000 10.000000 
L_Foot 0.000000 0.000000 0.000000 0.000000 0.000000 0.000000 10.000000 
L_Toe1_01 0.000000 0.000000 0.000000 0.000000 0.000000 0.000000 10.000000 
L_Toe2_01 0.000000 0.000000 0.000000 0.000000 0.000000 0.000000 10.000000 
L_Toe3_01 0.000000 0.000000 0.000000 0.000000 0.000000 0.000000 10.000000 
planeAlignerLeft 0.000000 0.000000 0.000000 0.000000 0.000000 0.000000 10.000000 
L_Toe1_02 0.000000 0.000000 0.000000 0.000000 0.000000 0.000000 10.000000 
L_Toe1_03 0.000000 0.000000 0.000000 0.000000 0.000000 0.000000 10.000000 
L_Toe2_02 0.000000 0.000000 0.000000 0.000000 0.000000 0.000000 10.000000 
L_Toe2_03 0.000000 0.000000 0.000000 0.000000 0.000000 0.000000 10.000000 
L_Toe3_02 0.000000 0.000000 0.000000 0.000000 0.000000 0.000000 10.000000 
L_Toe3_03 0.000000 0.000000 0.000000 0.000000 0.000000 0.000000 10.000000 
planeLockWeightLeft 0.000000 0.000000 0.000000 0.000000 0.000000 0.000000 10.000000 
R_Leg01 0.000000 0.000000 0.000000 0.000000 0.000000 0.000000 10.000000 
R_Leg02 0.000000 0.000000 0.000000 0.000000 0.000000 0.000000 10.000000 
R_Leg03 0.000000 0.000000 0.000000 0.000000 0.000000 0.000000 10.000000 
R_Foot 0.000000 0.000000 0.000000 0.000000 0.000000 0.000000 10.000000 
planeAlignerRight 0.000000 0.000000 0.000000 0.000000 0.000000 0.000000 10.000000 
R_Toe1_01 0.000000 0.000000 0.000000 0.000000 0.000000 0.000000 10.000000 
R_Toe2_01 0.000000 0.000000 0.000000 0.000000 0.000000 0.000000 10.000000 
R_Toe3_01 0.000000 0.000000 0.000000 0.000000 0.000000 0.000000 10.000000 
planeLockWeightRight 0.000000 0.000000 0.000000 0.000000 0.000000 0.000000 10.000000 
R_Toe1_02 0.000000 0.000000 0.000000 0.000000 0.000000 0.000000 10.000000 
R_Toe1_03 0.000000 0.000000 0.000000 0.000000 0.000000 0.000000 10.000000 
R_Toe2_02 0.000000 0.000000 0.000000 0.000000 0.000000 0.000000 10.000000 
R_Toe2_03 0.000000 0.000000 0.000000 0.000000 0.000000 0.000000 10.000000 
R_Toe3_02 0.000000 0.000000 0.000000 0.000000 0.000000 0.000000 10.000000 
R_Toe3_03 0.000000 0.000000 0.000000 0.000000 0.000000 0.000000 10.000000 
Rear_Leg02 0.000000 0.000000 0.000000 0.000000 0.000000 0.000000 10.000000 
Rear_Leg03 0.000000 0.000000 0.000000 0.000000 0.000000 0.000000 10.000000 
Rear_Leg04 0.000000 0.000000 0.000000 0.000000 0.000000 0.000000 10.000000 
Rear_Foot 0.000000 0.000000 0.000000 0.000000 0.000000 0.000000 10.000000 
planeAlignerCenter 0.000000 0.000000 0.000000 0.000000 0.000000 0.000000 10.000000 
Rear_Toe1_01 0.000000 0.000000 0.000000 0.000000 0.000000 0.000000 10.000000 
Rear_Toe2_01 0.000000 0.000000 0.000000 0.000000 0.000000 0.000000 10.000000 
Rear_Toe3_01 0.000000 0.000000 0.000000 0.000000 0.000000 0.000000 10.000000 
planeLockWeightCenter 0.000000 0.000000 0.000000 0.000000 0.000000 0.000000 10.000000 
Rear_Toe1_02 0.000000 0.000000 0.000000 0.000000 0.000000 0.000000 10.000000 
Rear_Toe1_03 0.000000 0.000000 0.000000 0.000000 0.000000 0.000000 10.000000 
Rear_Toe2_02 0.000000 0.000000 0.000000 0.000000 0.000000 0.000000 10.000000 
Rear_Toe2_03 0.000000 0.000000 0.000000 0.000000 0.000000 0.000000 10.000000 
Rear_Toe3_02 0.000000 0.000000 0.000000 0.000000 0.000000 0.000000 10.000000 
Rear_Toe3_03 0.000000 0.000000 0.000000 0.000000 0.000000 0.000000 10.000000 
Back_Bone 0.000000 0.000000 0.000000 0.000000 0.000000 0.000000 10.000000 
Head 0.000000 0.000000 0.000000 0.000000 0.000000 0.000000 10.000000 
Motor_Bone 0.000000 0.000000 0.000000 0.000000 0.000000 0.000000 10.000000 
Ping_Mechanism 0.000000 0.000000 0.000000 0.000000 0.000000 0.000000 10.000000 
BN_LookIK 0.000000 0.000000 0.000000 0.000000 0.000000 0.000000 10.000000 
bottomMouth 0.000000 0.000000 0.000000 0.000000 0.000000 0.000000 10.000000 
L_Mouth01 0.000000 0.000000 0.000000 0.000000 0.000000 0.000000 10.000000 
L_mouthFront 0.000000 0.000000 0.000000 0.000000 0.000000 0.000000 10.000000 
mouthGun 0.000000 0.000000 0.000000 0.000000 0.000000 0.000000 10.000000 
R_Mouth01 0.000000 0.000000 0.000000 0.000000 0.000000 0.000000 10.000000 
R_mouthFront 0.000000 0.000000 0.000000 0.000000 0.000000 0.000000 10.000000 
TopMouth 0.000000 0.000000 0.000000 0.000000 0.000000 0.000000 10.000000 
weapon_bone 0.000000 0.000000 0.000000 0.000000 0.000000 0.000000 10.000000 
#Beginning of Data. Separated by tabs
#Fr	Tx	Ty	Tz	Rx	Ry	Rz	SF
[Pinger_Root]
45 0.000000 0.000000 0.000000 -0.000075 -0.000000 -0.000020 0.000000
46 0.000000 0.000000 0.000000 -0.000075 -0.000000 -0.000020 0.000000
47 0.000000 0.000000 0.000000 -0.000075 -0.000000 -0.000020 0.000000
[Pelvis]
45 546.730591 799.643738 4176.303711 -102.347618 -82.086716 94.704689 4287.173828
46 491.934204 822.551270 4182.625000 -102.506165 -82.582062 94.865242 4291.030273
47 436.127380 842.121033 4192.611816 -102.687241 -83.077232 95.048409 4298.530762
[L_Hip]
45 5.766392 125.831482 872.656799 160.158691 -45.484905 122.312202 881.701050
46 5.766392 125.831482 872.656799 160.158691 -45.484905 122.312202 881.701050
47 5.766392 125.831482 872.656799 160.158691 -45.484905 122.312202 881.701050
[R_Hip]
45 5.765438 125.836372 -872.654907 38.087841 49.812687 125.703735 881.699829
46 5.765438 125.836372 -872.654907 38.087841 49.812687 125.703735 881.699829
47 5.765438 125.836372 -872.654907 38.087841 49.812687 125.703735 881.699829
[Rear_Leg01]
45 -192.298416 -925.602966 -0.001907 167.838028 -5.644996 -162.119110 945.367432
46 -192.298416 -925.602966 -0.001907 167.948700 -4.887975 -161.487015 945.367432
47 -192.298416 -925.602966 -0.001907 168.180161 -3.911867 -160.977844 945.367432
[Spine1]
45 290.604584 5.007505 0.000477 11.854284 11.782798 19.318472 290.647736
46 290.604584 5.007505 0.000477 11.321086 9.697125 19.404707 290.647736
47 290.604584 5.007505 0.000477 10.787665 7.612350 19.510033 290.647736
[L_Leg01]
45 761.932007 -0.002384 -0.069261 23.833582 -13.619899 1.191455 761.932068
46 761.932007 -0.002384 -0.069261 23.749233 -13.926135 0.872481 761.932068
47 761.932007 -0.002384 -0.069261 23.608273 -14.254393 0.250793 761.932068
[L_Leg02]
45 1441.140503 -0.000954 -0.000715 2.664671 -0.184649 -129.587708 1441.140503
46 1441.140503 -0.000954 -0.000715 2.802836 -0.189952 -130.868134 1441.140503
47 1441.140503 -0.000954 -0.000715 2.902689 -0.189467 -131.801041 1441.140503
[L_Leg03]
45 1686.963989 -0.000715 -0.000954 -0.029945 0.014719 118.138817 1686.963989
46 1686.963989 -0.000715 -0.000954 -0.029927 0.014755 118.277092 1686.963989
47 1686.963989 -0.000715 -0.000954 -0.029909 0.014791 118.415390 1686.963989
[L_Foot]
45 3041.570068 -30.715107 11.297464 -5.133790 12.683856 49.719627 3041.746094
46 3041.570068 -30.715107 11.297464 -4.398193 12.699606 50.721535 3041.746094
47 3041.570068 -30.715107 11.297464 -3.662403 12.702802 51.723587 3041.746094
[L_Toe1_01]
45 -188.216690 -224.732346 -21.137953 93.984856 -4.577404 -175.735748 293.899567
46 -188.216690 -224.732346 -21.137953 94.014084 -4.846550 -176.024551 293.899567
47 -188.216690 -224.732346 -21.137953 94.024109 -5.042079 -176.086426 293.899567
[L_Toe2_01]
45 200.746536 -219.926590 148.838394 -92.196037 -24.358463 -48.818718 332.896027
46 200.746536 -219.926590 148.838394 -92.218887 -24.752768 -48.500294 332.896027
47 200.746536 -219.926590 148.838394 -92.189331 -25.039818 -48.388130 332.896027
[L_Toe3_01]
45 188.832520 -219.859131 -191.078659 -100.436424 16.877556 -65.524467 347.140900
46 188.832520 -219.859131 -191.078659 -100.221535 16.732136 -64.928696 347.140900
47 188.832520 -219.859131 -191.078659 -100.078163 16.572876 -64.598587 347.140900
[planeAlignerLeft]
45 0.812531 -811.448792 -0.314951 0.000000 -90.000000 -90.001900 811.449280
46 0.812531 -811.448792 -0.314951 0.000000 -90.000000 -90.001900 811.449280
47 0.812531 -811.448792 -0.314951 0.000000 -90.000000 -90.001900 811.449280
[L_Toe1_02]
45 413.761139 0.000477 0.000000 0.000203 -25.410625 -0.000182 413.761139
46 413.761139 0.000477 0.000000 0.000203 -25.410625 -0.000182 413.761139
47 413.761139 0.000477 0.000000 0.000203 -25.410625 -0.000182 413.761139
[L_Toe1_03]
45 464.317322 0.000358 -0.000089 0.004483 59.644360 0.004483 464.317322
46 464.317322 0.000358 -0.000089 0.004474 59.583565 0.004474 464.317322
47 464.317322 0.000358 -0.000089 0.004465 59.522770 0.004465 464.317322
[L_Toe2_02]
45 342.235809 -0.000477 0.000238 0.001185 -74.173203 0.001185 342.235809
46 342.235809 -0.000477 0.000238 0.001185 -74.276466 0.001185 342.235809
47 342.235809 -0.000477 0.000238 0.001185 -74.257874 0.001185 342.235809
[L_Toe2_03]
45 420.210846 -0.000715 0.000000 0.000000 89.620514 0.003500 420.210846
46 420.210846 -0.000715 0.000000 -179.888458 89.417511 -179.884964 420.210846
47 420.210846 -0.000715 0.000000 0.000000 89.429733 0.003502 420.210846
[L_Toe3_02]
45 329.270111 0.000954 0.000000 0.001178 -80.616951 0.001178 329.270111
46 329.270111 0.000954 0.000000 0.001177 -80.863564 0.001177 329.270111
47 329.270111 0.000954 0.000000 0.001177 -81.110275 0.001177 329.270111
[L_Toe3_03]
45 439.137451 -0.001907 0.000954 -179.996277 77.949982 -179.992767 439.137451
46 439.137451 -0.001907 0.000954 -179.996750 76.858910 -179.993225 439.137451
47 439.137451 -0.001907 0.000954 -179.997009 76.084457 -179.993484 439.137451
[planeLockWeightLeft]
45 -0.000954 0.000238 -0.000305 -0.011826 -0.004376 0.005620 0.001029
46 -0.000954 0.000238 -0.000305 -0.011826 -0.004376 0.005620 0.001029
47 -0.000954 0.000238 -0.000305 -0.011826 -0.004376 0.005620 0.001029
[R_Leg01]
45 761.455627 -0.001907 -0.000358 125.447983 -23.801823 30.378462 761.455688
46 761.455627 -0.001907 -0.000358 124.897690 -22.643669 30.643679 761.455688
47 761.455627 -0.001907 -0.000358 124.247765 -21.283499 30.831406 761.455688
[R_Leg02]
45 1441.140625 0.000000 -0.000238 -2.178022 -0.650890 -142.820572 1441.140625
46 1441.140625 0.000000 -0.000238 -2.156527 -0.637955 -142.172577 1441.140625
47 1441.140625 0.000000 -0.000238 -2.122692 -0.612260 -141.189041 1441.140625
[R_Leg03]
45 1686.963989 0.000954 0.001431 0.098167 -0.055535 136.888596 1686.963989
46 1686.963989 0.000954 0.001431 0.097872 -0.054493 136.746109 1686.963989
47 1686.963989 0.000954 0.001431 0.097573 -0.053452 136.603622 1686.963989
[R_Foot]
45 3041.560059 -30.531288 -11.204481 -6.448571 -24.263956 63.880436 3041.734131
46 3041.560059 -30.531288 -11.204481 -5.661640 -24.279160 63.664406 3041.734131
47 3041.560059 -30.531288 -11.204481 -4.848457 -24.307219 63.154560 3041.734131
[planeAlignerRight]
45 -0.635147 -812.270569 -0.364304 0.000000 -89.960434 -90.005180 812.270874
46 -0.635147 -812.270569 -0.364304 0.000000 -89.960434 -90.005180 812.270874
47 -0.635147 -812.270569 -0.364304 0.000000 -89.960434 -90.005180 812.270874
[R_Toe1_01]
45 -188.383347 -224.864899 21.052242 76.449722 4.077324 -175.354416 294.101532
46 -188.383347 -224.864899 21.052242 76.484367 3.574702 -175.017639 294.101532
47 -188.383347 -224.864899 21.052242 76.516052 3.071848 -174.681320 294.101532
[R_Toe2_01]
45 200.637817 -220.002121 -148.787384 -92.931190 38.718307 -57.833549 332.857574
46 200.637817 -220.002121 -148.787384 -92.812424 38.001797 -58.047195 332.857574
47 200.637817 -220.002121 -148.787384 -92.691391 37.285599 -58.260647 332.857574
[R_Toe3_01]
45 188.606735 -220.092957 191.126343 -75.086967 -5.806392 -68.541824 347.192566
46 188.606735 -220.092957 191.126343 -74.882774 -6.097676 -69.264313 347.192566
47 188.606735 -220.092957 191.126343 -74.674759 -6.386399 -69.988304 347.192566
[planeLockWeightRight]
45 -0.000477 0.000000 0.000000 -0.011823 -0.004379 -0.000027 0.000477
46 -0.000477 0.000000 0.000000 -0.011823 -0.004379 -0.000027 0.000477
47 -0.000477 0.000000 0.000000 -0.011823 -0.004379 -0.000027 0.000477
[R_Toe1_02]
45 413.762085 0.000477 -0.000119 0.001390 -25.182972 0.001390 413.762085
46 413.762085 0.000477 -0.000119 0.001391 -25.065542 0.001391 413.762085
47 413.762085 0.000477 -0.000119 0.001392 -24.948124 0.001392 413.762085
[R_Toe1_03]
45 464.317810 0.000000 0.001088 0.005731 66.366272 0.005731 464.317810
46 464.317810 0.000000 0.001088 0.005879 66.968185 0.005879 464.317810
47 464.317810 0.000000 0.001088 0.006034 67.570038 0.006034 464.317810
[R_Toe2_02]
45 342.234741 -0.000954 0.000238 0.001196 -67.785988 0.001196 342.234741
46 342.234741 -0.000954 0.000238 0.001196 -67.657600 0.001196 342.234741
47 342.234741 -0.000954 0.000238 0.001197 -67.529213 0.001197 342.234741
[R_Toe2_03]
45 420.210846 0.000715 -0.000268 0.008796 74.665459 0.008796 420.210846
46 420.210846 0.000715 -0.000268 0.008650 74.403671 0.008650 420.210846
47 420.210846 0.000715 -0.000268 0.008508 74.141853 0.008508 420.210846
[R_Toe3_02]
45 329.270355 -0.000477 -0.000954 0.001178 -79.936859 0.001178 329.270355
46 329.270355 -0.000477 -0.000954 0.001179 -79.428322 0.001179 329.270355
47 329.270355 -0.000477 -0.000954 0.001179 -78.830452 0.001179 329.270355
[R_Toe3_03]
45 439.137939 0.000238 0.001431 -179.994888 80.397530 -179.991379 439.137939
46 439.137939 0.000238 0.001431 -179.992996 82.461388 -179.989502 439.137939
47 439.137939 0.000238 0.001431 -179.989700 84.524567 -179.986206 439.137939
[Rear_Leg02]
45 1162.777710 -0.029802 0.005960 1.147174 -2.748876 -134.445175 1162.777710
46 1162.777710 -0.029802 0.005960 1.122800 -2.759061 -133.922424 1162.777710
47 1162.777710 -0.029802 0.005960 1.098336 -2.769022 -133.399750 1162.777710
[Rear_Leg03]
45 607.192505 -0.013351 -0.073195 0.010495 -0.005100 68.191879 607.192505
46 607.192505 -0.013351 -0.073195 0.010503 -0.005084 68.018326 607.192505
47 607.192505 -0.013351 -0.073195 0.010510 -0.005068 67.844765 607.192505
[Rear_Leg04]
45 995.874512 -0.020504 -0.011921 -0.040057 -0.019098 66.381233 995.874573
46 995.874512 -0.020504 -0.011921 -0.039992 -0.019230 66.002235 995.874573
47 995.874512 -0.020504 -0.011921 -0.039927 -0.019361 65.623276 995.874573
[Rear_Foot]
45 3096.176270 -0.067472 -0.041425 -166.540619 79.213486 25.182892 3096.176270
46 3096.176270 -0.067472 -0.041425 -165.539917 79.998062 26.485199 3096.176270
47 3096.176270 -0.067472 -0.041425 -164.344101 80.778107 27.982306 3096.176270
[planeAlignerCenter]
45 0.350077 0.966311 -838.790894 0.000009 0.000003 -179.999985 838.791565
46 0.350077 0.966311 -838.790894 0.000009 0.000003 -179.999985 838.791565
47 0.350077 0.966311 -838.790894 0.000009 0.000003 -179.999985 838.791565
[Rear_Toe1_01]
45 0.653352 83.966492 -371.173737 0.288091 41.914127 90.413170 380.553192
46 0.653352 83.966492 -371.173737 0.288091 41.914127 90.413170 380.553192
47 0.653352 83.966492 -371.173737 0.288091 41.914127 90.413170 380.553192
[Rear_Toe2_01]
45 178.200760 -294.826019 -362.060547 -7.196267 34.406261 -66.271294 499.765686
46 178.200760 -294.826019 -362.060547 -7.196267 34.406261 -66.271294 499.765686
47 178.200760 -294.826019 -362.060547 -7.196267 34.406261 -66.271294 499.765686
[Rear_Toe3_01]
45 -153.359680 -308.780914 -362.060852 3.289418 33.518005 -112.540970 499.952881
46 -153.359680 -308.780914 -362.060852 3.289418 33.518005 -112.540970 499.952881
47 -153.359680 -308.780914 -362.060852 3.289418 33.518005 -112.540970 499.952881
[planeLockWeightCenter]
45 -0.000062 0.000238 0.000000 -0.011814 -0.004373 -0.000015 0.000246
46 -0.000062 0.000238 0.000000 -0.011814 -0.004373 -0.000015 0.000246
47 -0.000062 0.000238 0.000000 -0.011814 -0.004373 -0.000015 0.000246
[Rear_Toe1_02]
45 379.707825 0.194073 0.000477 -0.000242 -31.676744 0.006934 379.707855
46 379.707825 0.194073 0.000477 -0.000242 -31.676744 0.006934 379.707855
47 379.707825 0.194073 0.000477 -0.000242 -31.676744 0.006934 379.707855
[Rear_Toe1_03]
45 500.129700 0.165701 0.000119 -0.000103 51.902466 0.007295 500.129761
46 500.129700 0.165701 0.000119 -0.000103 51.902481 0.007295 500.129761
47 500.129700 0.165701 0.000119 -0.000103 51.902481 0.007295 500.129761
[Rear_Toe2_02]
45 340.494507 0.000238 -0.000954 0.001192 -69.854523 0.001192 340.494507
46 340.494507 0.000238 -0.000954 0.001192 -69.854523 0.001192 340.494507
47 340.494507 0.000238 -0.000954 0.001192 -69.854523 0.001192 340.494507
[Rear_Toe2_03]
45 433.103577 0.000000 0.000238 0.006696 69.810326 0.006696 433.103546
46 433.103577 0.000000 0.000238 0.006696 69.810341 0.006696 433.103546
47 433.103577 0.000000 0.000238 0.006696 69.810341 0.006696 433.103546
[Rear_Toe3_02]
45 340.494141 -0.000358 -0.000477 0.008288 -67.274704 -0.009460 340.494171
46 340.494141 -0.000358 -0.000477 0.008288 -67.274704 -0.009460 340.494171
47 340.494141 -0.000358 -0.000477 0.008288 -67.274704 -0.009460 340.494171
[Rear_Toe3_03]
45 433.103577 0.001431 -0.000238 -0.000972 65.958984 -0.004547 433.103546
46 433.103577 0.001431 -0.000238 -0.000972 65.958961 -0.004547 433.103546
47 433.103577 0.001431 -0.000238 -0.000972 65.958984 -0.004547 433.103546
[Back_Bone]
45 1312.175781 -701.934692 0.000954 0.000023 -0.000007 -85.606667 1488.125488
46 1312.175781 -701.934692 0.000954 0.000023 -0.000007 -85.606667 1488.125488
47 1312.175781 -701.934692 0.000954 0.000023 -0.000007 -85.606667 1488.125488
[Head]
45 1406.159424 809.709290 0.001431 -0.084201 -1.641992 7.857953 1622.625488
46 1406.159424 809.709290 0.001431 -0.047229 -1.565890 7.815521 1622.625488
47 1406.159424 809.709290 0.001431 -0.010316 -1.489763 7.773139 1622.625488
[Motor_Bone]
45 1158.364380 -417.834747 0.000477 -0.000105 0.000046 -105.985291 1231.419434
46 1158.364380 -417.834747 0.000477 -0.000105 0.000046 -105.985291 1231.419434
47 1158.364380 -417.834747 0.000477 -0.000105 0.000046 -105.985291 1231.419434
[Ping_Mechanism]
45 1215.237793 -433.297150 0.000954 0.000103 -0.000053 82.120995 1290.174072
46 1215.237793 -433.297150 0.000954 0.000103 -0.000053 82.120995 1290.174072
47 1215.237793 -433.297150 0.000954 0.000103 -0.000053 82.120995 1290.174072
[BN_LookIK]
45 193.241119 1380.371704 -0.002861 0.000000 89.965736 -31.038179 1393.832153
46 193.241119 1380.371704 -0.002861 0.000000 89.965736 -31.038179 1393.832153
47 193.241119 1380.371704 -0.002861 0.000000 89.965736 -31.038179 1393.832153
[bottomMouth]
45 -435.092926 615.759399 -0.000954 -0.000022 0.000016 73.527184 753.966492
46 -435.092926 615.759399 -0.000954 -0.000022 0.000016 73.527184 753.966492
47 -435.092926 615.759399 -0.000954 -0.000022 0.000016 73.527184 753.966492
[L_Mouth01]
45 554.440979 7.658243 838.222046 150.204178 23.759130 109.605339 1005.027161
46 554.440979 7.658243 838.222046 150.204178 23.759130 109.605339 1005.027161
47 554.440979 7.658243 838.222046 150.204178 23.759130 109.605339 1005.027161
[L_mouthFront]
45 551.629089 934.514771 339.150421 0.000081 2.804060 79.119301 1136.941284
46 551.629089 934.514771 339.150421 0.000081 2.804060 79.119301 1136.941284
47 551.629089 934.514771 339.150421 0.000081 2.804060 79.119301 1136.941284
[mouthGun]
45 55.332661 1627.420898 0.000000 0.000023 0.000009 -11.038128 1628.361328
46 55.332661 1627.420898 0.000000 0.000023 0.000009 -11.038128 1628.361328
47 55.332661 1627.420898 0.000000 0.000023 0.000009 -11.038128 1628.361328
[R_Mouth01]
45 554.442383 7.659197 -838.223938 29.795891 -23.759109 109.605331 1005.029541
46 554.442383 7.659197 -838.223938 29.795891 -23.759109 109.605331 1005.029541
47 554.442383 7.659197 -838.223938 29.795891 -23.759109 109.605331 1005.029541
[R_mouthFront]
45 551.629089 934.514282 -339.151367 0.000029 -2.803930 79.119133 1136.941162
46 551.629089 934.514282 -339.151367 0.000029 -2.803930 79.119133 1136.941162
47 551.629089 934.514282 -339.151367 0.000029 -2.803930 79.119133 1136.941162
[TopMouth]
45 461.269867 -56.106091 -0.008583 -0.000059 -0.000268 92.025169 464.669525
46 461.269867 -56.106091 -0.008583 -0.000059 -0.000268 92.025169 464.669525
47 461.269867 -56.106091 -0.008583 -0.000059 -0.000268 92.025169 464.669525
[weapon_bone]
45 -987.239868 1448.372803 0.001431 0.000000 89.965736 -31.038221 1752.833740
46 -987.239868 1448.372803 0.001431 0.000000 89.965736 -31.038221 1752.833740
47 -987.239868 1448.372803 0.001431 0.000000 89.965736 -31.038221 1752.833740
